<svg xmlns="http://www.w3.org/2000/svg" width="578" height="156" viewBox="0 0 578 156"><defs><style>.a{opacity:0.25;isolation:isolate;}.b{opacity:0.5;}</style></defs><title>partner</title><rect class="a" width="578" height="156"/><g class="b"><path d="M105.2,113.7V42.5h19.2V98.1h27.4v15.5l-46.6.1h0Z"/><path d="M259.7,78c0,12-2.9,21.1-8.8,27.3s-14.5,9.3-25.8,9.3-19.7-3.1-25.7-9.4-8.9-15.4-8.9-27.3,3-20.9,8.9-27.1,14.5-9.4,25.8-9.4,19.9,3.1,25.8,9.3S259.7,66,259.7,78Zm-49,0c0,13.8,4.8,20.6,14.4,20.6,4.9,0,8.5-1.7,10.8-5s3.5-8.5,3.6-15.6-1.2-12.4-3.6-15.8-5.9-5.1-10.7-5.1c-9.6,0-14.4,7-14.5,20.9h0Z"/><path d="M331.1,72h30.7v38.3a85.92,85.92,0,0,1-27.5,4.3c-11,0-19.4-3.2-25.4-9.5s-9-15.4-9-27.2c0-11.5,3.3-20.4,9.8-26.8s15.7-9.6,27.5-9.6a60.17,60.17,0,0,1,12.7,1.3A54.36,54.36,0,0,1,360.3,46l-6.1,15a36.68,36.68,0,0,0-16.9-3.8c-5.6,0-9.9,1.8-13,5.5s-4.6,8.9-4.6,15.7,1.4,11.7,4.2,15.2,6.8,5.2,12,5.2a42.34,42.34,0,0,0,7.9-.8V86.8H331.1V72h0Z"/><path d="M472.8,78c0,12-2.9,21.1-8.8,27.3s-14.5,9.3-25.8,9.3-19.7-3.1-25.7-9.4-8.9-15.4-8.9-27.3,3-20.9,8.9-27.1,14.5-9.4,25.8-9.4,19.9,3.1,25.8,9.3C469.8,56.9,472.8,66,472.8,78Zm-49,0c0,13.8,4.8,20.6,14.4,20.6,4.9,0,8.5-1.7,10.8-5s3.5-8.5,3.6-15.6-1.2-12.4-3.6-15.8-5.9-5.1-10.7-5.1c-9.7,0-14.5,7-14.5,20.9h0Z"/></g></svg>