<svg xmlns="http://www.w3.org/2000/svg" width="325.41" height="52.46" viewBox="0 0 325.41 52.46"><title>secret-escapes-black</title><path d="M53,34.48a19.33,19.33,0,0,1-13.25,4.67c-9.28,0-16.51-5.06-16.51-15.23,0-10.62,7.43-15.81,16.64-15.81,10.56,0,12.67,7.75,13,11.84a100.19,100.19,0,0,1-17.73,5.26c0.59,4,2.59,9.27,10.49,9.34a14.94,14.94,0,0,0,6.91-1.66ZM34.55,21.94a57.37,57.37,0,0,0,8.71-1.54c-0.13-1.79-.7-9.41-4.93-9.41-3.39,0-3.9,4.42-3.9,7.55C34.42,19.7,34.55,20.78,34.55,21.94Z" transform="translate(-0.02 0.01)"/><path d="M78.48,35.51a20.74,20.74,0,0,1-11.39,3.65C50,39.16,50,26.74,50,24.16c0-4.22,3.84-16,17.92-16,8.71,0,9.09,2.5,9.86,2.56A9.32,9.32,0,0,1,74.32,17h-1c-0.9-1.22-3.84-5.25-7.11-5.25S61.15,16,61.15,21.4c0,9.09,5.25,13.19,11.33,13.19a24.21,24.21,0,0,0,5.25-.51Z" transform="translate(-0.02 0.01)"/><path d="M127.49,34.48a19.33,19.33,0,0,1-13.25,4.67c-9.29,0-16.52-5.05-16.52-15.23,0-10.62,7.43-15.81,16.64-15.81,10.56,0,12.67,7.75,13,11.84a100.19,100.19,0,0,1-17.73,5.26c0.64,4,2.56,9.28,10.5,9.35A14.94,14.94,0,0,0,127,32.9ZM109.05,21.94a57.37,57.37,0,0,0,8.67-1.54c-0.13-1.79-.7-9.41-4.93-9.41-3.39,0-3.9,4.42-3.9,7.55C108.92,19.7,109.05,20.78,109.05,21.94Z" transform="translate(-0.02 0.01)"/><path d="M19.34,18.21c-0.19-1.79-2-7.23-6.21-7.23a3.07,3.07,0,0,0-3.27,3.23c0,1.54,0,3.33,8.83,7.43a9.23,9.23,0,0,1,5.63,8c0,7-6.21,9.54-13.44,9.54A21.85,21.85,0,0,1,1,37a56.76,56.76,0,0,1-1-9.73H3.65c0.7,5.82,4.35,9,7.36,9,3.2,0,3.71-1.79,3.71-3.59,0-1.34-1.15-3.39-4.67-5.25C5.82,25.25.26,23.27,0.26,17.06c0-5.44,4.16-9,12.8-9A19.7,19.7,0,0,1,21.72,9.9a36.49,36.49,0,0,1,.69,8.31H19.34" transform="translate(-0.02 0.01)"/><path d="M126.81,9.07v-3c0-7,10.43-5.94,10.43-5.94v9c2.82,0.26,4.55.32,7.17,0.51v1.57a69.65,69.65,0,0,1-7.17.7v10.5c0,6.72.06,12.29,5.89,12.29a10.87,10.87,0,0,0,3-.58l0.45,1.66c-1.86,1.2-4.86,3.38-11.86,3.38-1,0-7.87,0-7.87-9.09v-21h0Z" transform="translate(-0.02 0.01)"/><path d="M80.39,39.11l0.09-19.23c0-4.29,0-6.66-1.79-6.66h-1.8l-0.51-1.91a106.73,106.73,0,0,1,13.34-3.2,21.3,21.3,0,0,1,.7,4.48c1.66-1.66,4-4.48,7.49-4.48s4.86,2.56,5.57,4a8.68,8.68,0,0,1-4.54,5.76c-1.86,0-3.46-1.86-6.53-2.63a13.41,13.41,0,0,0-1.54-.32V30.46l0,2.75C90.82,40.21,80.39,39.11,80.39,39.11Z" transform="translate(-0.02 0.01)"/><path d="M227.88,36.36c-1.66,1.22-5,2.69-10.12,2.69-7.3,0-14.91-4.29-14.91-13.51C202.85,13.25,211.56,8,219.3,8c3.07,0,6,.7,7.43,1.86a9.89,9.89,0,0,1-1.66,4.67h-0.35A9,9,0,0,0,217.23,11c-4.61,0-8.45,3.65-8.45,10.88-0.06,10.12,5.14,14.92,12.44,14.92a13.71,13.71,0,0,0,6.15-2Z" transform="translate(-0.02 0.01)"/><path d="M253.89,37.45a7.57,7.57,0,0,1-4.87,1.6c-3.26,0-4.42-1.34-5.06-2.69a15.06,15.06,0,0,1-9.41,2.69c-4.74,0-7.94-2.69-7.94-6.21,0-8.32,11.07-10.82,16.71-12.48V18.89c0-4.22-1.15-7.87-6-7.87-5.12,0-6.72,4-7.94,6.4h-0.46a7.41,7.41,0,0,1-1.66-2.56c1.92-2.56,6-6.85,12.8-6.85,7.3,0,8.83,3.84,8.83,10.37v9.15c0,4.48,0,9.28,3.52,9.28a2.16,2.16,0,0,0,1.15-.26ZM242.43,23.37c-3.65,0-9.92,1.6-9.92,7.62,0,3.65,2.3,5.83,6,5.83a6,6,0,0,0,4.82-2.61V23.37h-0.9Z" transform="translate(-0.02 0.01)"/><path d="M306.36,35.47a18.47,18.47,0,0,1-11.2,3.59c-8.07,0-14.66-5.38-14.66-14.47C280.5,13.77,288,8,295.35,8c8.58,0,10.43,6.21,11.26,9.67a94.1,94.1,0,0,1-20.23,6.85c0.26,4,3.33,11.52,12,11.52a14.16,14.16,0,0,0,7.23-2Zm-20-13.76a113.79,113.79,0,0,0,14.47-3.65c-0.9-4-2.5-7.81-7.36-7.81-5.42,0-7.08,6.78-7.08,11.45h0Z" transform="translate(-0.02 0.01)"/><path d="M321.53,17.61c0-2.88-2-7.49-6.21-7.49-2.43,0-4.1,1.73-4.1,4.54,0,7.3,14.21,5.18,14.21,15.43,0,6.08-5,9-11.07,9a17.51,17.51,0,0,1-8.13-1.88A28,28,0,0,1,305,28.63h1.7c1.28,4.16,3.46,8.32,8.58,8.32a4.63,4.63,0,0,0,4.57-4.69V32.21c0-8.7-14.21-5.63-14.21-16.07,0-5.25,4.67-8.13,10.24-8.13a12.3,12.3,0,0,1,6.82,1.85,26.77,26.77,0,0,1,.83,7.75h-2Z" transform="translate(-0.02 0.01)"/><path d="M186.89,35.42A20.29,20.29,0,0,1,172.21,42c-10.9.1-19.81-7.27-19.81-19.56C152.4,7.78,162.52,0,172.47,0c11.59,0,14.1,8.39,15.23,13.06a127.25,127.25,0,0,1-27.34,9.26c0.35,5.36,4.5,15.57,16.18,15.57,5.28,0,7.79-3.47,9-4.07m-25.19-15.3a154.13,154.13,0,0,0,19.55-4.93C178.72,8.21,176.53,3,169.95,3,162.6,3,160.35,12.21,160.35,18.51Z" transform="translate(-0.02 0.01)"/><path d="M199.64,17.61c0-2.88-2-7.49-6.21-7.49-2.43,0-4.1,1.73-4.1,4.54,0,7.3,14.21,5.18,14.21,15.43,0,6.08-5,9-11.07,9a17.51,17.51,0,0,1-8.12-1.88,28,28,0,0,1-1.22-8.58h1.73c1.28,4.16,3.46,8.32,8.58,8.32A4.63,4.63,0,0,0,198,32.23v0c0-8.7-14.21-5.63-14.21-16.07C183.77,10.89,188.44,8,194,8a12.3,12.3,0,0,1,6.79,1.86,26.77,26.77,0,0,1,.83,7.75h-2Z" transform="translate(-0.02 0.01)"/><path d="M267.17,8a15.7,15.7,0,0,0-8.58,2.69A6.9,6.9,0,0,0,257.82,8c-2.24,0-7.3,1.66-9.15,2.24l0.25,1.54,1.41-.38c0.13,0,.58-0.06.9-0.06,1.79,0,1.79,1.79,1.79,8.07v33h0s5.62,0.6,5.62-3.2V38.35a18.74,18.74,0,0,0,5.25.71c7,0,17.28-4.16,17.28-17.09C281.12,13,274.78,8,267.17,8Zm-1.45,28.8a10.24,10.24,0,0,1-7.11-2.31v-22A11.33,11.33,0,0,1,264,11c5.76,0,11.26,4,11.26,12.35C275.23,31.56,272.09,36.81,265.72,36.81Z" transform="translate(-0.02 0.01)"/></svg>